<svg version="1.0" width="250" height="250" viewBox="0 0 123 123" xmlns="http://www.w3.org/2000/svg">
  <defs>
    <clipPath clipPathUnits="userSpaceOnUse" id="a">
      <path transform="scale(1 -1)" fill="none" stroke-width="1.4" d="M873-1517h1276v1276H873z"/>
    </clipPath>
  </defs>
  <g transform="matrix(.1 0 0 -.1 -90 150)" clip-path="url(#a)">
    <path d="m990 452 90-11 32 261-90 12zm110-2 61-7 27 235-60 7zm700 110c-56-15-101-34-103-41-8-26-29-32-159-26-67 6-125 11-143 4-18 0-15 5 11 14 23 4 56-3 137-7 83-4 120-5 134 6 13 11 15 27 10 42-8 19-35 29-136 42-71 8-130 21-159 34-26 11-78 25-117 30l-69 8-26-215 274-95c25-6 40-12 59-11 20 0 51 12 51 12l333 165c32 14 55 27 56 35 3 22-13 30-39 31-7 1-58-12-114-28z" fill="#194284"/>
    <circle cx="1562.2" cy="-964.6" transform="scale(1 -1) rotate(7)" r="149.8" fill="#0ac0a2"/>
    <path fill="#05f" d="m1669 846 79-79-79-80-79 80z"/>
    <path d="m2042 1320-90 11-33-262 91-11zm-111 1-60 7-27-235 59-7zm-700-110c56 16 102 34 104 41 7 27 29 33 158 26 67-5 126-11 144-4 17 1 15-4-11-14-23-4-57 3-137 7-84 4-121 5-134-6-14-11-16-26-11-42 8-18 36-29 137-41 70-9 129-21 159-35 26-11 77-25 116-29l70-9 26 215-274 95c-25 7-41 12-60 12-19-1-51-13-51-13l-333-164c-31-15-55-28-56-36-2-22 14-29 40-31 7 0 58 12 113 28z" fill="#194284"/>
    <circle cx="-1230.9" cy="1162.9" transform="scale(-1 1) rotate(7)" r="149.8" fill="#ffa200"/>
    <path fill="#05f" d="m1363 926-79 80 79 79 79-79z"/>
  </g>
</svg>